<svg xmlns="http://www.w3.org/2000/svg" viewBox="0 0 400 260">
  <defs>
    <linearGradient id="bg" x1="0" y1="0" x2="0" y2="1">
      <stop offset="0" stop-color="#122449"/>
      <stop offset="1" stop-color="#0a1730"/>
    </linearGradient>
  </defs>
  <rect width="400" height="260" fill="url(#bg)"/>

  <g>
    <rect x="30" y="20" width="40" height="40" rx="6" fill="#d94f4f"/>
    <rect x="118" y="20" width="40" height="40" rx="6" fill="#4d7fd9"/>
    <rect x="74" y="64" width="40" height="40" rx="6" fill="#e8c34d"/>
    <rect x="162" y="64" width="40" height="40" rx="6" fill="#2c3038"/>
    <rect x="206" y="64" width="40" height="40" rx="6" fill="#eef2f7"/>
    <rect x="30" y="108" width="40" height="40" rx="6" fill="#4d7fd9"/>
    <rect x="206" y="108" width="40" height="40" rx="6" fill="#d94f4f"/>
    <rect x="74" y="152" width="40" height="40" rx="6" fill="#2c3038"/>
    <rect x="118" y="152" width="40" height="40" rx="6" fill="#eef2f7"/>
    <rect x="162" y="152" width="40" height="40" rx="6" fill="#e8c34d"/>
    <rect x="30" y="196" width="40" height="40" rx="6" fill="#eef2f7"/>
    <rect x="74" y="196" width="40" height="40" rx="6" fill="#d94f4f"/>
    <rect x="118" y="196" width="40" height="40" rx="6" fill="#4d7fd9"/>
    <rect x="206" y="196" width="40" height="40" rx="6" fill="#2c3038"/>
  </g>

  <g fill="rgba(255,255,255,0.04)" stroke="#46618f" stroke-width="1.5">
    <rect x="74" y="20" width="40" height="40" rx="6"/>
    <rect x="162" y="20" width="40" height="40" rx="6"/>
    <rect x="206" y="20" width="40" height="40" rx="6"/>
    <rect x="30" y="64" width="40" height="40" rx="6"/>
    <rect x="118" y="64" width="40" height="40" rx="6"/>
    <rect x="74" y="108" width="40" height="40" rx="6"/>
    <rect x="118" y="108" width="40" height="40" rx="6"/>
    <rect x="162" y="108" width="40" height="40" rx="6"/>
    <rect x="30" y="152" width="40" height="40" rx="6"/>
    <rect x="206" y="152" width="40" height="40" rx="6"/>
    <rect x="162" y="196" width="40" height="40" rx="6"/>
  </g>

  <g>
    <rect x="282" y="40" width="26" height="26" rx="6" fill="#d94f4f"/>
    <rect x="318" y="76" width="26" height="26" rx="6" fill="#e8c34d"/>
    <rect x="300" y="116" width="26" height="26" rx="6" fill="#4d7fd9"/>
    <rect x="330" y="150" width="26" height="26" rx="6" fill="#eef2f7" stroke="#9db4d8" stroke-width="1.5"/>
  </g>
</svg>